<svg width="30" height="31" viewBox="0 0 30 31" fill="none" xmlns="http://www.w3.org/2000/svg">
<path d="M3.12698 16.5103C3.90385 12.6216 4.29301 10.6801 5.57623 9.42729C5.81338 9.19646 6.06991 8.9864 6.34297 8.79942C7.82293 7.78674 9.80489 7.78674 13.7688 7.78674H16.2325C20.195 7.78674 22.1755 7.78674 23.654 8.79942C23.9289 8.98749 24.185 9.19871 24.4208 9.42873C25.7054 10.6801 26.0946 12.623 26.8715 16.5088C27.9869 22.0873 28.5453 24.8765 27.2606 26.8526C27.0292 27.2114 26.7572 27.5427 26.4505 27.8407C24.7636 29.4871 21.9209 29.4871 16.2325 29.4871H13.7688C8.079 29.4871 5.23481 29.4871 3.54797 27.8407C3.24276 27.5422 2.97154 27.2108 2.73927 26.8526C1.45461 24.8765 2.01303 22.0873 3.12988 16.5088L3.12698 16.5103Z" stroke="#8E8E8E" stroke-width="2.97682"/>
<path d="M10.6584 7.78675V6.34006C10.6584 5.18901 11.1157 4.0851 11.9296 3.27118C12.7435 2.45726 13.8475 2 14.9985 2C16.1496 2 17.2535 2.45726 18.0674 3.27118C18.8813 4.0851 19.3386 5.18901 19.3386 6.34006V7.78675M10.9044 20.8069C11.2033 21.654 11.7576 22.3875 12.4908 22.9064C13.2241 23.4252 14.1002 23.7039 14.9985 23.7039C15.8968 23.7039 16.7729 23.4252 17.5062 22.9064C18.2395 22.3875 18.7938 21.654 19.0926 20.8069" stroke="#8E8E8E" stroke-width="2.97682" stroke-linecap="round"/>
</svg>
