<svg width="366" height="127" viewBox="0 0 366 127" fill="none" xmlns="http://www.w3.org/2000/svg">
<path d="M53.1879 17.7937C57.9173 10.3723 68.7529 10.3723 73.4823 17.7937C76.6542 22.7712 82.6001 25.234 88.3626 23.9573C96.9545 22.0538 104.616 29.7157 102.713 38.3076C101.436 44.0701 103.899 50.016 108.877 53.1879C116.298 57.9173 116.298 68.7529 108.877 73.4823C103.899 76.6542 101.436 82.6001 102.713 88.3626C104.616 96.9545 96.9545 104.616 88.3626 102.713C82.6001 101.436 76.6542 103.899 73.4823 108.877C68.7529 116.298 57.9173 116.298 53.1879 108.877C50.016 103.899 44.0701 101.436 38.3076 102.713C29.7157 104.616 22.0538 96.9545 23.9573 88.3626C25.234 82.6001 22.7712 76.6542 17.7937 73.4823C10.3723 68.7529 10.3723 57.9173 17.7937 53.1879C22.7712 50.016 25.234 44.0701 23.9573 38.3076C22.0538 29.7157 29.7157 22.0538 38.3076 23.9573C44.0701 25.234 50.016 22.7712 53.1879 17.7937Z" stroke="#323232" stroke-width="2.01064"/>
<path d="M79.4926 73.9403C79.0208 77.4004 78.6669 80.9195 78.431 84.4975C76.2684 85.1266 74.0666 85.6968 71.8254 86.2079C69.5842 86.7191 67.1857 86.9746 64.63 86.9746C60.2655 86.9746 56.4712 86.1096 53.2471 84.3796C50.0622 82.6495 47.5851 80.2314 45.8157 77.1252C44.0464 73.9796 43.1617 70.2836 43.1617 66.0372C43.1617 61.7514 44.0464 57.9768 45.8157 54.7133C47.5851 51.4105 50.0819 48.8351 53.306 46.9871C56.5302 45.1391 60.3245 44.2151 64.6889 44.2151C66.301 44.2151 67.7165 44.3134 68.9354 44.5099C70.1543 44.7065 71.6288 45.0014 73.3588 45.3946C74.1452 45.5519 74.8333 45.7092 75.4231 45.8665C76.0129 46.0237 76.6223 46.1024 77.2514 46.1024C77.448 46.1024 77.6643 46.1024 77.9002 46.1024C78.1361 46.0631 78.3327 46.0237 78.49 45.9844C78.5686 47.7145 78.6472 49.5035 78.7259 51.3515C78.8045 53.1995 78.9225 55.1261 79.0797 57.1314C78.2934 57.2494 77.6249 57.2887 77.0745 57.2494C75.541 50.1326 71.5108 46.5742 64.9838 46.5742C62.3494 46.5742 60.1083 47.105 58.2603 48.1666C56.4123 49.1889 54.9181 50.6044 53.7779 52.4131C52.6376 54.1825 51.8119 56.1877 51.3008 58.4289C50.7896 60.6701 50.534 63.0096 50.534 65.4474C50.534 68.9075 51.0452 72.0923 52.0675 75.0019C53.0898 77.9116 54.7019 80.2314 56.9037 81.9614C59.1056 83.6915 61.9366 84.5565 65.3967 84.5565C68.6602 84.5565 71.2552 83.6915 73.1819 81.9614C75.1478 80.2314 76.5633 77.538 77.4283 73.8814C77.7429 73.8814 78.0574 73.8814 78.372 73.8814C78.7259 73.8814 79.0994 73.901 79.4926 73.9403Z" fill="#323232"/>
<path d="M134.625 73.4405C133.396 73.4405 132.267 73.1652 131.239 72.6146C130.212 72.064 129.386 71.2657 128.762 70.2196C128.156 69.1735 127.853 67.9072 127.853 66.4206C127.853 65.3745 128.028 64.3927 128.376 63.4751C128.725 62.5574 129.211 61.7499 129.835 61.0525C130.478 60.3551 131.23 59.8046 132.093 59.4008C132.974 58.997 133.946 58.7952 135.011 58.7952C136.185 58.7952 137.158 58.9787 137.929 59.3457C138.718 59.6944 139.305 60.1624 139.691 60.7497C140.095 61.3186 140.296 61.9243 140.296 62.5666C140.296 63.0988 140.131 63.576 139.801 63.9981C139.489 64.4019 139.039 64.6129 138.452 64.6313C137.755 64.6496 137.268 64.4569 136.993 64.0532C136.718 63.6311 136.58 63.2273 136.58 62.8419C136.58 62.6767 136.608 62.484 136.663 62.2638C136.718 62.0252 136.8 61.8142 136.91 61.6306C136.782 61.3553 136.589 61.1535 136.332 61.025C136.075 60.8965 135.809 60.8139 135.534 60.7772C135.277 60.7222 135.066 60.7038 134.901 60.7222C134.02 60.7772 133.295 61.2177 132.726 62.0436C132.157 62.8694 131.873 64.0623 131.873 65.6223C131.873 66.5399 131.983 67.4025 132.203 68.21C132.442 68.9992 132.827 69.6507 133.359 70.1645C133.891 70.6784 134.607 70.9537 135.506 70.9904C136.277 71.0088 137.03 70.8252 137.764 70.4398C138.498 70.0544 139.122 69.5314 139.636 68.8707L140.902 70.1095C140.241 71.0271 139.553 71.7245 138.837 72.2017C138.122 72.6788 137.406 73 136.69 73.1652C135.993 73.3487 135.305 73.4405 134.625 73.4405ZM150.03 73C149.993 72.7431 149.966 72.532 149.947 72.3668C149.947 72.1833 149.938 71.9723 149.92 71.7337C149.296 72.3577 148.635 72.7981 147.938 73.0551C147.24 73.312 146.534 73.4405 145.818 73.4405C144.643 73.4405 143.726 73.0918 143.065 72.3944C142.404 71.697 142.074 70.8252 142.074 69.7791C142.074 68.8982 142.294 68.1458 142.735 67.5218C143.194 66.8978 143.79 66.3931 144.524 66.0077C145.277 65.6039 146.103 65.3011 147.002 65.0993C147.919 64.879 148.837 64.7506 149.755 64.7138V63.2824C149.755 62.8052 149.69 62.3739 149.562 61.9885C149.452 61.6031 149.25 61.3003 148.956 61.0801C148.681 60.8598 148.286 60.7589 147.773 60.7772C147.424 60.7956 147.084 60.869 146.754 60.9975C146.424 61.1259 146.139 61.3095 145.901 61.548C146.047 61.7132 146.139 61.8967 146.176 62.0986C146.213 62.2821 146.231 62.4473 146.231 62.5941C146.231 62.9612 146.084 63.3466 145.791 63.7503C145.497 64.1357 145.029 64.3193 144.387 64.3009C143.836 64.2826 143.414 64.0899 143.12 63.7228C142.827 63.3558 142.68 62.9245 142.68 62.429C142.68 61.6949 142.937 61.0617 143.451 60.5295C143.983 59.9789 144.689 59.5568 145.57 59.2632C146.451 58.9512 147.424 58.7952 148.488 58.7952C150.103 58.7952 151.351 59.2173 152.232 60.0615C153.132 60.8874 153.581 62.2179 153.581 64.0532C153.581 64.6771 153.581 65.2094 153.581 65.6498C153.581 66.0903 153.572 66.5307 153.554 66.9712C153.554 67.4117 153.554 67.9439 153.554 68.5679C153.554 68.8248 153.544 69.1919 153.526 69.669C153.508 70.1278 153.48 70.5683 153.444 70.9904C153.755 70.9537 154.086 70.9353 154.435 70.9353C154.783 70.917 155.049 70.9078 155.233 70.9078V73H150.03ZM149.727 66.6684C149.213 66.7234 148.727 66.8152 148.268 66.9437C147.809 67.0721 147.406 67.2465 147.057 67.4667C146.726 67.687 146.46 67.9531 146.259 68.2651C146.075 68.577 145.983 68.9257 145.983 69.3111C146.002 69.825 146.167 70.1921 146.479 70.4123C146.791 70.6325 147.149 70.7426 147.552 70.7426C147.974 70.7426 148.369 70.6509 148.736 70.4674C149.103 70.2838 149.433 70.0452 149.727 69.7516C149.727 69.5681 149.727 69.3937 149.727 69.2286C149.727 69.045 149.727 68.8615 149.727 68.678C149.727 68.3476 149.727 68.0173 149.727 67.687C149.727 67.3383 149.727 66.9987 149.727 66.6684ZM156.813 71.2106C157.327 71.2106 157.694 71.1097 157.915 70.9078C158.135 70.7059 158.272 70.4215 158.327 70.0544C158.401 69.669 158.438 69.2377 158.438 68.7606V64.1357C158.438 63.8054 158.447 63.4384 158.465 63.0346C158.483 62.6125 158.511 62.1996 158.548 61.7958C158.254 61.8142 157.905 61.8325 157.502 61.8509C157.116 61.8509 156.823 61.86 156.621 61.8784V59.7862H157.722C158.438 59.7862 159.089 59.6944 159.676 59.5109C160.282 59.3274 160.677 59.1439 160.86 58.9603H162.209C162.246 59.1439 162.273 59.4926 162.292 60.0064C162.31 60.502 162.319 60.9424 162.319 61.3278C162.815 60.7222 163.283 60.2358 163.723 59.8688C164.164 59.5017 164.595 59.2356 165.017 59.0705C165.457 58.8869 165.898 58.7952 166.338 58.7952C166.981 58.7952 167.54 58.9787 168.018 59.3457C168.495 59.6944 168.733 60.2725 168.733 61.0801C168.733 61.3553 168.669 61.649 168.541 61.961C168.412 62.2546 168.21 62.5024 167.935 62.7043C167.66 62.9061 167.284 63.0071 166.806 63.0071C166.439 63.0071 166.063 62.897 165.678 62.6767C165.292 62.4565 165.072 62.0344 165.017 61.4104C164.65 61.4104 164.283 61.5664 163.916 61.8784C163.549 62.172 163.218 62.5299 162.925 62.952C162.65 63.3558 162.457 63.732 162.347 64.0807V68.5679C162.347 68.8248 162.338 69.1919 162.319 69.669C162.301 70.1278 162.273 70.5683 162.237 70.9904C162.53 70.9537 162.851 70.9353 163.2 70.9353C163.567 70.917 163.842 70.9078 164.026 70.9078V73H156.813V71.2106ZM175.138 73.4405C174.037 73.4405 173.064 73.156 172.22 72.5871C171.394 72.0181 170.743 71.2106 170.265 70.1645C169.807 69.1184 169.577 67.8888 169.577 66.4757C169.577 64.9891 169.862 63.6678 170.431 62.5116C171 61.3553 171.798 60.4469 172.826 59.7862C173.853 59.1255 175.046 58.7952 176.404 58.7952C176.9 58.7952 177.34 58.8502 177.726 58.9603C178.13 59.0521 178.506 59.1622 178.854 59.2907V57.4738C178.854 57.2169 178.864 56.8498 178.882 56.3726C178.9 55.8955 178.928 55.455 178.965 55.0513C178.671 55.0696 178.322 55.088 177.918 55.1063C177.515 55.1247 177.212 55.1338 177.01 55.1338V53.0417C177.873 53.0417 178.588 52.9958 179.157 52.904C179.745 52.8123 180.203 52.7021 180.534 52.5737C180.882 52.4452 181.121 52.3259 181.249 52.2158H182.736V68.5679C182.736 68.8248 182.727 69.1919 182.708 69.669C182.69 70.1278 182.663 70.5683 182.626 70.9904C182.938 70.9537 183.268 70.9353 183.617 70.9353C183.966 70.917 184.232 70.9078 184.415 70.9078V73H179.185C179.166 72.7981 179.139 72.5871 179.102 72.3668C179.084 72.1466 179.056 71.9356 179.02 71.7337C178.414 72.3577 177.79 72.7981 177.148 73.0551C176.505 73.312 175.835 73.4405 175.138 73.4405ZM176.57 70.9353C177.047 70.9353 177.487 70.8161 177.891 70.5775C178.295 70.3205 178.616 69.9994 178.854 69.614C178.854 69.3387 178.854 69.0634 178.854 68.7881C178.854 68.5128 178.854 68.2375 178.854 67.9622V61.3553C178.671 61.2085 178.396 61.0892 178.029 60.9975C177.662 60.8874 177.285 60.8323 176.9 60.8323C176.056 60.8506 175.395 61.1168 174.918 61.6306C174.441 62.1445 174.101 62.796 173.899 63.5852C173.716 64.3743 173.624 65.2002 173.624 66.0628C173.624 66.8336 173.716 67.5952 173.899 68.3476C174.101 69.1001 174.413 69.7241 174.835 70.2196C175.276 70.6968 175.854 70.9353 176.57 70.9353ZM186.83 57.4463C186.83 57.1159 186.83 56.7397 186.83 56.3176C186.848 55.8771 186.876 55.455 186.912 55.0513C186.619 55.0696 186.27 55.088 185.866 55.1063C185.481 55.1063 185.187 55.1155 184.985 55.1338V53.0417C185.848 53.0417 186.564 52.9958 187.132 52.904C187.72 52.8123 188.179 52.7021 188.509 52.5737C188.858 52.4452 189.096 52.3259 189.225 52.2158H190.711V60.2817C191.335 59.7311 191.968 59.3457 192.611 59.1255C193.253 58.9053 193.859 58.7952 194.428 58.7952C195.529 58.7952 196.492 59.0796 197.318 59.6486C198.162 60.2175 198.814 61.025 199.273 62.0711C199.75 63.1172 199.988 64.3468 199.988 65.7599C199.988 67.2281 199.713 68.5495 199.163 69.7241C198.63 70.8803 197.869 71.7887 196.878 72.4494C195.887 73.1101 194.694 73.4405 193.299 73.4405C192.803 73.4405 192.17 73.3303 191.399 73.1101C190.647 72.9082 189.95 72.4678 189.307 71.7887L188.481 73H186.83V57.4463ZM190.711 68.8707C190.711 69.4947 190.812 69.9902 191.014 70.3572C191.216 70.7243 191.473 70.9904 191.785 71.1556C192.097 71.3207 192.409 71.4125 192.721 71.4309C193.547 71.4492 194.189 71.2106 194.648 70.7151C195.125 70.2196 195.455 69.5681 195.639 68.7606C195.841 67.9347 195.942 67.0721 195.942 66.1729C195.942 65.3287 195.841 64.5303 195.639 63.7779C195.437 63.0254 195.116 62.4198 194.675 61.961C194.235 61.4838 193.657 61.2544 192.941 61.2728C192.482 61.2911 192.06 61.4104 191.675 61.6306C191.289 61.8325 190.968 62.1078 190.711 62.4565V68.8707ZM208.749 73.4405C207.428 73.4405 206.235 73.156 205.17 72.5871C204.106 72.0181 203.262 71.2106 202.638 70.1645C202.032 69.1001 201.729 67.8521 201.729 66.4206C201.729 64.8974 202.041 63.5668 202.665 62.429C203.308 61.2728 204.152 60.3827 205.198 59.7587C206.262 59.1163 207.419 58.7952 208.667 58.7952C209.988 58.7952 211.172 59.0796 212.218 59.6486C213.264 60.2175 214.09 61.0342 214.695 62.0986C215.301 63.1447 215.604 64.4019 215.604 65.8701C215.604 67.4117 215.31 68.7514 214.723 69.8893C214.136 71.0271 213.328 71.908 212.3 72.532C211.273 73.1376 210.089 73.4405 208.749 73.4405ZM208.859 71.4859C209.593 71.4676 210.144 71.2106 210.511 70.7151C210.896 70.2196 211.163 69.5956 211.309 68.8432C211.456 68.0907 211.53 67.3291 211.53 66.5583C211.53 65.8792 211.475 65.191 211.364 64.4936C211.273 63.7962 211.117 63.1631 210.896 62.5941C210.676 62.0252 210.373 61.5664 209.988 61.2177C209.621 60.869 209.162 60.7038 208.612 60.7222C207.896 60.7405 207.327 60.9975 206.905 61.493C206.501 61.9885 206.207 62.6125 206.024 63.3649C205.859 64.099 205.776 64.8698 205.776 65.6774C205.776 66.6133 205.877 67.531 206.079 68.4302C206.281 69.3295 206.602 70.0728 207.042 70.6601C207.501 71.229 208.107 71.5043 208.859 71.4859ZM225.25 73C225.213 72.7431 225.186 72.532 225.167 72.3668C225.167 72.1833 225.158 71.9723 225.14 71.7337C224.516 72.3577 223.855 72.7981 223.158 73.0551C222.46 73.312 221.754 73.4405 221.038 73.4405C219.864 73.4405 218.946 73.0918 218.285 72.3944C217.625 71.697 217.294 70.8252 217.294 69.7791C217.294 68.8982 217.514 68.1458 217.955 67.5218C218.414 66.8978 219.01 66.3931 219.744 66.0077C220.497 65.6039 221.323 65.3011 222.222 65.0993C223.14 64.879 224.057 64.7506 224.975 64.7138V63.2824C224.975 62.8052 224.911 62.3739 224.782 61.9885C224.672 61.6031 224.47 61.3003 224.176 61.0801C223.901 60.8598 223.507 60.7589 222.993 60.7772C222.644 60.7956 222.304 60.869 221.974 60.9975C221.644 61.1259 221.359 61.3095 221.121 61.548C221.268 61.7132 221.359 61.8967 221.396 62.0986C221.433 62.2821 221.451 62.4473 221.451 62.5941C221.451 62.9612 221.304 63.3466 221.011 63.7503C220.717 64.1357 220.249 64.3193 219.607 64.3009C219.056 64.2826 218.634 64.0899 218.34 63.7228C218.047 63.3558 217.9 62.9245 217.9 62.429C217.9 61.6949 218.157 61.0617 218.671 60.5295C219.203 59.9789 219.909 59.5568 220.79 59.2632C221.671 58.9512 222.644 58.7952 223.708 58.7952C225.323 58.7952 226.571 59.2173 227.452 60.0615C228.352 60.8874 228.801 62.2179 228.801 64.0532C228.801 64.6771 228.801 65.2094 228.801 65.6498C228.801 66.0903 228.792 66.5307 228.774 66.9712C228.774 67.4117 228.774 67.9439 228.774 68.5679C228.774 68.8248 228.765 69.1919 228.746 69.669C228.728 70.1278 228.7 70.5683 228.664 70.9904C228.976 70.9537 229.306 70.9353 229.655 70.9353C230.003 70.917 230.269 70.9078 230.453 70.9078V73H225.25ZM224.947 66.6684C224.433 66.7234 223.947 66.8152 223.488 66.9437C223.029 67.0721 222.626 67.2465 222.277 67.4667C221.947 67.687 221.681 67.9531 221.479 68.2651C221.295 68.577 221.203 68.9257 221.203 69.3111C221.222 69.825 221.387 70.1921 221.699 70.4123C222.011 70.6325 222.369 70.7426 222.772 70.7426C223.195 70.7426 223.589 70.6509 223.956 70.4674C224.323 70.2838 224.654 70.0452 224.947 69.7516C224.947 69.5681 224.947 69.3937 224.947 69.2286C224.947 69.045 224.947 68.8615 224.947 68.678C224.947 68.3476 224.947 68.0173 224.947 67.687C224.947 67.3383 224.947 66.9987 224.947 66.6684ZM232.034 71.2106C232.547 71.2106 232.914 71.1097 233.135 70.9078C233.355 70.7059 233.493 70.4215 233.548 70.0544C233.621 69.669 233.658 69.2377 233.658 68.7606V64.1357C233.658 63.8054 233.667 63.4384 233.685 63.0346C233.704 62.6125 233.731 62.1996 233.768 61.7958C233.474 61.8142 233.126 61.8325 232.722 61.8509C232.336 61.8509 232.043 61.86 231.841 61.8784V59.7862H232.942C233.658 59.7862 234.309 59.6944 234.897 59.5109C235.502 59.3274 235.897 59.1439 236.08 58.9603H237.429C237.466 59.1439 237.493 59.4926 237.512 60.0064C237.53 60.502 237.539 60.9424 237.539 61.3278C238.035 60.7222 238.503 60.2358 238.943 59.8688C239.384 59.5017 239.815 59.2356 240.237 59.0705C240.678 58.8869 241.118 58.7952 241.558 58.7952C242.201 58.7952 242.761 58.9787 243.238 59.3457C243.715 59.6944 243.953 60.2725 243.953 61.0801C243.953 61.3553 243.889 61.649 243.761 61.961C243.632 62.2546 243.43 62.5024 243.155 62.7043C242.88 62.9061 242.504 63.0071 242.026 63.0071C241.659 63.0071 241.283 62.897 240.898 62.6767C240.512 62.4565 240.292 62.0344 240.237 61.4104C239.87 61.4104 239.503 61.5664 239.136 61.8784C238.769 62.172 238.439 62.5299 238.145 62.952C237.87 63.3558 237.677 63.732 237.567 64.0807V68.5679C237.567 68.8248 237.558 69.1919 237.539 69.669C237.521 70.1278 237.493 70.5683 237.457 70.9904C237.75 70.9537 238.072 70.9353 238.42 70.9353C238.787 70.917 239.063 70.9078 239.246 70.9078V73H232.034V71.2106ZM250.358 73.4405C249.257 73.4405 248.284 73.156 247.44 72.5871C246.614 72.0181 245.963 71.2106 245.486 70.1645C245.027 69.1184 244.797 67.8888 244.797 66.4757C244.797 64.9891 245.082 63.6678 245.651 62.5116C246.22 61.3553 247.018 60.4469 248.046 59.7862C249.074 59.1255 250.266 58.7952 251.625 58.7952C252.12 58.7952 252.561 58.8502 252.946 58.9603C253.35 59.0521 253.726 59.1622 254.075 59.2907V57.4738C254.075 57.2169 254.084 56.8498 254.102 56.3726C254.12 55.8955 254.148 55.455 254.185 55.0513C253.891 55.0696 253.542 55.088 253.139 55.1063C252.735 55.1247 252.432 55.1338 252.23 55.1338V53.0417C253.093 53.0417 253.808 52.9958 254.377 52.904C254.965 52.8123 255.424 52.7021 255.754 52.5737C256.103 52.4452 256.341 52.3259 256.47 52.2158H257.956V68.5679C257.956 68.8248 257.947 69.1919 257.929 69.669C257.91 70.1278 257.883 70.5683 257.846 70.9904C258.158 70.9537 258.488 70.9353 258.837 70.9353C259.186 70.917 259.452 70.9078 259.635 70.9078V73H254.405C254.387 72.7981 254.359 72.5871 254.322 72.3668C254.304 72.1466 254.276 71.9356 254.24 71.7337C253.634 72.3577 253.01 72.7981 252.368 73.0551C251.725 73.312 251.056 73.4405 250.358 73.4405ZM251.79 70.9353C252.267 70.9353 252.707 70.8161 253.111 70.5775C253.515 70.3205 253.836 69.9994 254.075 69.614C254.075 69.3387 254.075 69.0634 254.075 68.7881C254.075 68.5128 254.075 68.2375 254.075 67.9622V61.3553C253.891 61.2085 253.616 61.0892 253.249 60.9975C252.882 60.8874 252.505 60.8323 252.12 60.8323C251.276 60.8506 250.615 61.1168 250.138 61.6306C249.661 62.1445 249.321 62.796 249.119 63.5852C248.936 64.3743 248.844 65.2002 248.844 66.0628C248.844 66.8336 248.936 67.5952 249.119 68.3476C249.321 69.1001 249.633 69.7241 250.055 70.2196C250.496 70.6968 251.074 70.9353 251.79 70.9353ZM261.251 80.0198V78.8636C261.802 78.8636 262.187 78.7352 262.408 78.4782C262.628 78.2213 262.756 77.8634 262.793 77.4046C262.848 76.9458 262.876 76.4136 262.876 75.8079L262.903 63.0621C262.903 62.7685 262.912 62.4565 262.931 62.1261C262.949 61.7775 262.977 61.4379 263.013 61.1076C262.701 61.1259 262.371 61.1443 262.022 61.1626C261.674 61.1626 261.352 61.1718 261.059 61.1902V59.7311C261.885 59.7311 262.527 59.6944 262.986 59.621C263.463 59.5293 263.821 59.4283 264.059 59.3182C264.316 59.2081 264.509 59.0888 264.637 58.9603H265.628C265.647 59.1439 265.665 59.3641 265.684 59.621C265.702 59.878 265.72 60.1349 265.739 60.3918C266.326 59.878 266.977 59.4834 267.693 59.2081C268.409 58.9328 269.125 58.7952 269.84 58.7952C270.905 58.7952 271.878 59.0796 272.758 59.6486C273.658 60.1991 274.373 60.9883 274.906 62.016C275.456 63.0438 275.732 64.2642 275.732 65.6774C275.732 67.2006 275.42 68.5495 274.796 69.7241C274.172 70.8986 273.327 71.8163 272.263 72.477C271.217 73.1193 270.051 73.4405 268.767 73.4405C268.179 73.4405 267.638 73.367 267.143 73.2202C266.647 73.0918 266.179 72.9082 265.739 72.6697V76.6063C265.739 76.9366 265.729 77.267 265.711 77.5973C265.711 77.946 265.693 78.2947 265.656 78.6434C265.95 78.625 266.243 78.6067 266.537 78.5883C266.849 78.5883 267.133 78.5792 267.39 78.5608V80.0198H261.251ZM268.574 72.009C269.455 72.009 270.18 71.752 270.749 71.2382C271.336 70.7059 271.767 69.9994 272.043 69.1184C272.336 68.2192 272.483 67.2098 272.483 66.0903C272.483 65.1543 272.355 64.2642 272.098 63.42C271.841 62.5574 271.428 61.86 270.859 61.3278C270.308 60.7772 269.583 60.5111 268.684 60.5295C268.115 60.5295 267.574 60.6671 267.06 60.9424C266.546 61.2177 266.115 61.5572 265.766 61.961C265.766 62.1996 265.766 62.4565 265.766 62.7318C265.784 63.0071 265.794 63.3558 265.794 63.7779C265.794 64.1816 265.794 64.7047 265.794 65.347C265.794 65.971 265.784 66.7602 265.766 67.7145C265.766 68.6505 265.766 69.7883 265.766 71.128C266.133 71.4033 266.555 71.6236 267.032 71.7887C267.528 71.9539 268.042 72.0273 268.574 72.009ZM286.073 73C286.036 72.7064 286.009 72.4494 285.99 72.2292C285.972 72.009 285.944 71.7796 285.908 71.541C285.284 72.165 284.614 72.6421 283.898 72.9725C283.182 73.2845 282.439 73.4405 281.668 73.4405C280.347 73.4405 279.347 73.1193 278.668 72.477C278.007 71.8163 277.677 70.9996 277.677 70.0269C277.677 69.1827 277.924 68.4486 278.42 67.8246C278.915 67.2006 279.567 66.6959 280.374 66.3105C281.182 65.9068 282.063 65.6131 283.017 65.4296C283.972 65.2277 284.907 65.1268 285.825 65.1268V63.5026C285.825 62.9153 285.77 62.3739 285.66 61.8784C285.55 61.3645 285.32 60.9516 284.972 60.6396C284.641 60.3093 284.118 60.1441 283.403 60.1441C282.925 60.1257 282.448 60.2175 281.971 60.4194C281.494 60.6029 281.127 60.9149 280.87 61.3553C281.017 61.5022 281.109 61.6765 281.145 61.8784C281.2 62.0619 281.228 62.2363 281.228 62.4014C281.228 62.6584 281.118 62.952 280.897 63.2824C280.677 63.5943 280.301 63.7412 279.769 63.7228C279.328 63.7228 278.989 63.576 278.75 63.2824C278.53 62.9704 278.42 62.6125 278.42 62.2087C278.42 61.548 278.658 60.9608 279.136 60.4469C279.631 59.933 280.301 59.5293 281.145 59.2356C281.989 58.942 282.935 58.7952 283.981 58.7952C285.559 58.7952 286.734 59.2081 287.504 60.034C288.294 60.8598 288.688 62.1629 288.688 63.943C288.688 64.6037 288.688 65.2369 288.688 65.8425C288.688 66.4482 288.679 67.0538 288.661 67.6594C288.661 68.2651 288.661 68.9074 288.661 69.5864C288.661 69.8617 288.651 70.1737 288.633 70.5224C288.615 70.8711 288.587 71.2382 288.55 71.6236C288.862 71.6052 289.184 71.5869 289.514 71.5685C289.844 71.5502 290.156 71.541 290.45 71.541V73H286.073ZM285.825 66.3931C285.238 66.4298 284.632 66.5124 284.008 66.6409C283.403 66.7693 282.852 66.962 282.356 67.219C281.861 67.4759 281.457 67.8062 281.145 68.21C280.852 68.6138 280.705 69.1001 280.705 69.669C280.741 70.293 280.943 70.7518 281.31 71.0455C281.696 71.3391 282.145 71.4859 282.659 71.4859C283.302 71.4859 283.871 71.3666 284.366 71.128C284.862 70.8711 285.348 70.5224 285.825 70.082C285.807 69.8801 285.798 69.6782 285.798 69.4763C285.798 69.2561 285.798 69.0267 285.798 68.7881C285.798 68.6229 285.798 68.3201 285.798 67.8797C285.816 67.4208 285.825 66.9253 285.825 66.3931ZM298.861 73.4405C297.632 73.4405 296.503 73.1652 295.475 72.6146C294.448 72.0457 293.622 71.2382 292.998 70.1921C292.392 69.146 292.089 67.8797 292.089 66.3931C292.089 65.4021 292.264 64.4569 292.612 63.5576C292.961 62.64 293.447 61.8233 294.071 61.1076C294.714 60.3918 295.466 59.8321 296.329 59.4283C297.21 59.0062 298.182 58.7952 299.247 58.7952C300.33 58.7952 301.256 58.9603 302.027 59.2907C302.798 59.621 303.385 60.0523 303.789 60.5845C304.211 61.1168 304.422 61.6949 304.422 62.3188C304.422 62.7593 304.294 63.1447 304.037 63.4751C303.78 63.8054 303.413 63.9706 302.936 63.9706C302.404 63.9889 302.027 63.8329 301.807 63.5026C301.587 63.1539 301.477 62.8327 301.477 62.5391C301.477 62.3739 301.504 62.1904 301.559 61.9885C301.614 61.7683 301.715 61.5756 301.862 61.4104C301.715 61.025 301.477 60.7405 301.146 60.557C300.816 60.3735 300.477 60.2542 300.128 60.1991C299.779 60.1441 299.485 60.1165 299.247 60.1165C298.127 60.1349 297.182 60.6212 296.411 61.5756C295.659 62.5116 295.283 63.8696 295.283 65.6498C295.283 66.7877 295.448 67.8062 295.778 68.7055C296.127 69.6048 296.632 70.3205 297.292 70.8528C297.953 71.385 298.742 71.6603 299.66 71.6786C300.486 71.6786 301.284 71.4676 302.055 71.0455C302.826 70.605 303.45 70.0544 303.927 69.3937L304.808 70.1645C304.275 70.9904 303.661 71.6419 302.963 72.1191C302.284 72.5962 301.587 72.9358 300.871 73.1376C300.174 73.3395 299.504 73.4405 298.861 73.4405ZM306.441 73V71.8438C306.992 71.8438 307.368 71.7153 307.57 71.4584C307.79 71.2015 307.919 70.8436 307.955 70.3848C308.01 69.926 308.038 69.3937 308.038 68.7881L308.066 56.3451C308.066 56.0331 308.066 55.7211 308.066 55.4091C308.084 55.0788 308.111 54.7301 308.148 54.363C307.836 54.3814 307.506 54.3997 307.157 54.4181C306.808 54.4181 306.496 54.4273 306.221 54.4456V52.9866C307.029 52.9866 307.671 52.9499 308.148 52.8765C308.644 52.7847 309.029 52.6838 309.304 52.5737C309.58 52.4636 309.772 52.3443 309.882 52.2158H310.929V65.0717H312.112L315.003 61.961C315.296 61.6673 315.553 61.4104 315.774 61.1902C315.994 60.9699 316.214 60.7772 316.434 60.6121L314.7 60.6671V59.2356H320.123V60.3643C319.481 60.4377 318.894 60.6304 318.361 60.9424C317.847 61.2361 317.379 61.5756 316.957 61.961C316.535 62.3464 316.177 62.7043 315.884 63.0346L313.847 65.1818C314.195 65.347 314.498 65.5581 314.755 65.815C315.012 66.0536 315.287 66.3656 315.581 66.751L317.508 69.2286C317.6 69.3387 317.746 69.5406 317.948 69.8342C318.169 70.1095 318.426 70.4031 318.719 70.7151C319.013 71.0271 319.316 71.2932 319.628 71.5134C319.958 71.7337 320.27 71.8438 320.564 71.8438V73H317.838C317.306 73 316.811 72.7522 316.352 72.2567C315.911 71.7612 315.425 71.1648 314.893 70.4674C314.452 69.8801 314.048 69.3295 313.681 68.8156C313.314 68.2834 312.975 67.8062 312.663 67.3841C312.369 66.962 312.112 66.6317 311.892 66.3931L310.929 66.4482V69.5864C310.929 69.9168 310.919 70.2563 310.901 70.605C310.901 70.9353 310.873 71.2749 310.818 71.6236C311.112 71.6052 311.415 71.596 311.727 71.596C312.039 71.5777 312.323 71.5593 312.58 71.541V73H306.441ZM330.135 73C330.098 72.7064 330.071 72.4494 330.052 72.2292C330.034 72.009 330.007 71.7796 329.97 71.541C329.346 72.165 328.676 72.6421 327.96 72.9725C327.244 73.2845 326.501 73.4405 325.73 73.4405C324.409 73.4405 323.409 73.1193 322.73 72.477C322.069 71.8163 321.739 70.9996 321.739 70.0269C321.739 69.1827 321.986 68.4486 322.482 67.8246C322.978 67.2006 323.629 66.6959 324.437 66.3105C325.244 65.9068 326.125 65.6131 327.079 65.4296C328.034 65.2277 328.97 65.1268 329.887 65.1268V63.5026C329.887 62.9153 329.832 62.3739 329.722 61.8784C329.612 61.3645 329.383 60.9516 329.034 60.6396C328.703 60.3093 328.18 60.1441 327.465 60.1441C326.988 60.1257 326.51 60.2175 326.033 60.4194C325.556 60.6029 325.189 60.9149 324.932 61.3553C325.079 61.5022 325.171 61.6765 325.207 61.8784C325.262 62.0619 325.29 62.2363 325.29 62.4014C325.29 62.6584 325.18 62.952 324.96 63.2824C324.739 63.5943 324.363 63.7412 323.831 63.7228C323.39 63.7228 323.051 63.576 322.812 63.2824C322.592 62.9704 322.482 62.6125 322.482 62.2087C322.482 61.548 322.721 60.9608 323.198 60.4469C323.693 59.933 324.363 59.5293 325.207 59.2356C326.052 58.942 326.997 58.7952 328.043 58.7952C329.621 58.7952 330.796 59.2081 331.566 60.034C332.356 60.8598 332.75 62.1629 332.75 63.943C332.75 64.6037 332.75 65.2369 332.75 65.8425C332.75 66.4482 332.741 67.0538 332.723 67.6594C332.723 68.2651 332.723 68.9074 332.723 69.5864C332.723 69.8617 332.714 70.1737 332.695 70.5224C332.677 70.8711 332.649 71.2382 332.613 71.6236C332.925 71.6052 333.246 71.5869 333.576 71.5685C333.906 71.5502 334.218 71.541 334.512 71.541V73H330.135ZM329.887 66.3931C329.3 66.4298 328.694 66.5124 328.07 66.6409C327.465 66.7693 326.914 66.962 326.419 67.219C325.923 67.4759 325.519 67.8062 325.207 68.21C324.914 68.6138 324.767 69.1001 324.767 69.669C324.804 70.293 325.005 70.7518 325.373 71.0455C325.758 71.3391 326.208 71.4859 326.721 71.4859C327.364 71.4859 327.933 71.3666 328.428 71.128C328.924 70.8711 329.41 70.5224 329.887 70.082C329.869 69.8801 329.86 69.6782 329.86 69.4763C329.86 69.2561 329.86 69.0267 329.86 68.7881C329.86 68.6229 329.86 68.3201 329.86 67.8797C329.878 67.4208 329.887 66.9253 329.887 66.3931ZM342.676 80.4603C341.061 80.4603 339.758 80.2768 338.767 79.9097C337.794 79.561 337.087 79.1022 336.647 78.5333C336.225 77.9827 336.014 77.3954 336.014 76.7714C336.014 76.2759 336.124 75.8171 336.344 75.395C336.583 74.9729 336.895 74.5967 337.28 74.2663C337.666 73.9543 338.097 73.7066 338.574 73.523C337.932 73.3212 337.445 73.0367 337.115 72.6697C336.785 72.2843 336.62 71.8163 336.62 71.2657C336.62 70.6784 336.849 70.1003 337.308 69.5314C337.785 68.9625 338.464 68.577 339.345 68.3752C338.519 68.0081 337.858 67.4759 337.363 66.7785C336.867 66.0811 336.61 65.2552 336.592 64.3009C336.574 63.1998 336.849 62.2363 337.418 61.4104C338.005 60.5845 338.748 59.9422 339.648 59.4834C340.565 59.0246 341.52 58.7952 342.511 58.7952C343.08 58.7952 343.667 58.8778 344.272 59.0429C344.878 59.1897 345.429 59.4283 345.924 59.7587C346.126 59.2265 346.392 58.7401 346.723 58.2997C347.053 57.8592 347.438 57.5105 347.879 57.2536C348.338 56.9966 348.815 56.8682 349.31 56.8682C349.842 56.8682 350.246 57.0058 350.522 57.2811C350.797 57.5564 350.934 57.9234 350.934 58.3822C350.934 58.5291 350.889 58.7126 350.797 58.9328C350.723 59.1347 350.586 59.309 350.384 59.4559C350.182 59.6027 349.907 59.6761 349.558 59.6761C349.264 59.6761 348.998 59.5843 348.76 59.4008C348.539 59.1989 348.402 58.9603 348.347 58.6851C347.961 58.7585 347.64 58.9879 347.383 59.3733C347.145 59.7403 346.989 60.1165 346.915 60.502C347.392 60.9241 347.759 61.4288 348.016 62.016C348.292 62.585 348.429 63.1998 348.429 63.8605C348.429 64.9066 348.145 65.8334 347.576 66.6409C347.025 67.4484 346.3 68.0815 345.401 68.5403C344.502 68.9992 343.529 69.2286 342.483 69.2286C342.171 69.2286 341.877 69.2102 341.602 69.1735C341.327 69.1184 341.024 69.0909 340.694 69.0909C340.106 69.0909 339.62 69.2286 339.235 69.5039C338.868 69.7791 338.73 70.1095 338.822 70.4949C338.914 70.8986 339.299 71.1648 339.978 71.2932C340.657 71.4217 341.639 71.5134 342.924 71.5685C344.337 71.6236 345.548 71.7979 346.557 72.0916C347.585 72.3668 348.374 72.7981 348.925 73.3854C349.494 73.9727 349.778 74.771 349.778 75.7804C349.778 76.5329 349.567 77.2027 349.145 77.79C348.741 78.3773 348.191 78.8636 347.493 79.249C346.814 79.6528 346.053 79.9556 345.208 80.1575C344.364 80.3593 343.52 80.4603 342.676 80.4603ZM342.924 79.1114C344.41 79.1114 345.557 78.8361 346.365 78.2855C347.191 77.7349 347.603 77.111 347.603 76.4136C347.603 75.8263 347.402 75.3675 346.998 75.0371C346.594 74.7251 346.025 74.4957 345.291 74.3489C344.575 74.2204 343.731 74.147 342.758 74.1287C342.281 74.092 341.795 74.0644 341.299 74.0461C340.804 74.0277 340.345 73.9819 339.923 73.9084C339.501 74.2021 339.171 74.56 338.932 74.9821C338.712 75.4042 338.592 75.8446 338.574 76.3034C338.574 77.1477 338.969 77.8267 339.758 78.3406C340.547 78.8544 341.602 79.1114 342.924 79.1114ZM342.566 67.9347C343.19 67.9347 343.704 67.7787 344.107 67.4667C344.529 67.1364 344.841 66.7051 345.043 66.1729C345.264 65.6223 345.374 65.0258 345.374 64.3835C345.374 63.6311 345.264 62.9245 345.043 62.2638C344.823 61.6031 344.502 61.0709 344.08 60.6671C343.658 60.2634 343.116 60.0615 342.456 60.0615C341.556 60.0615 340.859 60.4194 340.363 61.1351C339.868 61.8509 339.62 62.7134 339.62 63.7228C339.62 64.5303 339.73 65.2552 339.95 65.8976C340.189 66.5216 340.529 67.0171 340.969 67.3841C341.41 67.7512 341.942 67.9347 342.566 67.9347ZM357.978 73.4405C356.693 73.4405 355.537 73.1468 354.509 72.5595C353.5 71.9539 352.701 71.1097 352.114 70.0269C351.527 68.9257 351.233 67.6319 351.233 66.1453C351.233 64.8607 351.518 63.6586 352.087 62.5391C352.674 61.4196 353.491 60.5203 354.537 59.8413C355.583 59.1439 356.794 58.7952 358.17 58.7952C358.941 58.7952 359.666 58.9145 360.345 59.153C361.043 59.3916 361.657 59.7679 362.19 60.2817C362.74 60.7772 363.171 61.4288 363.483 62.2363C363.795 63.0254 363.951 63.9889 363.951 65.1268L354.482 65.292C354.482 66.5399 354.619 67.6502 354.895 68.6229C355.188 69.5956 355.656 70.3481 356.298 70.8803C356.941 71.4125 357.776 71.6786 358.804 71.6786C359.299 71.6786 359.822 71.596 360.373 71.4309C360.942 71.2473 361.474 70.9904 361.969 70.6601C362.483 70.3297 362.915 69.9351 363.263 69.4763L364.117 70.2196C363.566 71.0455 362.933 71.697 362.217 72.1741C361.501 72.633 360.767 72.9541 360.015 73.1376C359.281 73.3395 358.602 73.4405 357.978 73.4405ZM354.592 63.8605H360.951C360.951 63.1631 360.85 62.5391 360.648 61.9885C360.464 61.4196 360.171 60.9699 359.767 60.6396C359.363 60.3093 358.849 60.1441 358.225 60.1441C357.253 60.1441 356.454 60.4561 355.83 61.0801C355.206 61.6857 354.794 62.6125 354.592 63.8605Z" fill="#323232"/>
</svg>
