<svg width="22" height="24" viewBox="0 0 22 24" fill="none" xmlns="http://www.w3.org/2000/svg">
<path d="M18.2363 23.8945C17.2732 23.8945 16.4545 23.5574 15.7803 22.8832C15.1061 22.209 14.769 21.3903 14.769 20.4272C14.769 20.2923 14.7786 20.1525 14.7979 20.0076C14.8172 19.8628 14.8461 19.7329 14.8846 19.6181L6.73634 14.8794C6.40887 15.1684 6.04287 15.3949 5.63835 15.559C5.23383 15.7232 4.81004 15.8048 4.36699 15.8041C3.40385 15.8041 2.58517 15.467 1.91096 14.7927C1.23676 14.1185 0.899658 13.2999 0.899658 12.3367C0.899658 11.3736 1.23676 10.5549 1.91096 9.88069C2.58517 9.20648 3.40385 8.86938 4.36699 8.86938C4.81004 8.86938 5.23383 8.95144 5.63835 9.11556C6.04287 9.27969 6.40887 9.50583 6.73634 9.79401L14.8846 5.05531C14.8461 4.93973 14.8172 4.8099 14.7979 4.66581C14.7786 4.52173 14.769 4.38188 14.769 4.24627C14.769 3.28312 15.1061 2.46444 15.7803 1.79024C16.4545 1.11603 17.2732 0.778931 18.2363 0.778931C19.1995 0.778931 20.0182 1.11603 20.6924 1.79024C21.3666 2.46444 21.7037 3.28312 21.7037 4.24627C21.7037 5.20942 21.3666 6.02809 20.6924 6.7023C20.0182 7.3765 19.1995 7.7136 18.2363 7.7136C17.7933 7.7136 17.3695 7.63193 16.965 7.46858C16.5605 7.30523 16.1945 7.0787 15.867 6.78898L7.71875 11.5277C7.75728 11.6433 7.78617 11.7735 7.80544 11.9183C7.8247 12.0632 7.83433 12.2026 7.83433 12.3367C7.83433 12.4716 7.8247 12.6114 7.80544 12.7563C7.78617 12.9011 7.75728 13.031 7.71875 13.1458L15.867 17.8845C16.1945 17.5955 16.5605 17.3694 16.965 17.206C17.3695 17.0427 17.7933 16.9606 18.2363 16.9598C19.1995 16.9598 20.0182 17.2969 20.6924 17.9711C21.3666 18.6453 21.7037 19.464 21.7037 20.4272C21.7037 21.3903 21.3666 22.209 20.6924 22.8832C20.0182 23.5574 19.1995 23.8945 18.2363 23.8945ZM18.2363 5.40205C18.5638 5.40205 18.8385 5.29109 19.0604 5.06918C19.2823 4.84727 19.3929 4.57297 19.3921 4.24627C19.3921 3.9188 19.2812 3.64411 19.0593 3.4222C18.8373 3.20029 18.563 3.08972 18.2363 3.09049C17.9089 3.09049 17.6342 3.20144 17.4123 3.42335C17.1904 3.64526 17.0798 3.91957 17.0806 4.24627C17.0806 4.57374 17.1915 4.84843 17.4134 5.07034C17.6353 5.29225 17.9096 5.40282 18.2363 5.40205ZM4.36699 13.4925C4.69447 13.4925 4.96916 13.3815 5.19106 13.1596C5.41297 12.9377 5.52354 12.6634 5.52277 12.3367C5.52277 12.0092 5.41182 11.7346 5.18991 11.5126C4.968 11.2907 4.6937 11.1802 4.36699 11.1809C4.03952 11.1809 3.76483 11.2919 3.54292 11.5138C3.32102 11.7357 3.21045 12.01 3.21122 12.3367C3.21122 12.6642 3.32217 12.9389 3.54408 13.1608C3.76599 13.3827 4.04029 13.4933 4.36699 13.4925ZM18.2363 21.583C18.5638 21.583 18.8385 21.472 19.0604 21.2501C19.2823 21.0282 19.3929 20.7539 19.3921 20.4272C19.3921 20.0997 19.2812 19.825 19.0593 19.6031C18.8373 19.3812 18.563 19.2706 18.2363 19.2714C17.9089 19.2714 17.6342 19.3823 17.4123 19.6043C17.1904 19.8262 17.0798 20.1005 17.0806 20.4272C17.0806 20.7546 17.1915 21.0293 17.4134 21.2512C17.6353 21.4732 17.9096 21.5837 18.2363 21.583Z" fill="#F24E1E"/>
</svg>
